<mxfile host="app.diagrams.net" modified="2021-03-24T13:53:12.836Z" agent="5.0 (X11)" etag="UCUnWJVqEjTz9ITKWwtW" version="14.4.9" type="github">
  <diagram name="Page-1" id="c4acf3e9-155e-7222-9cf6-157b1a14988f">
    <mxGraphModel dx="1590" dy="804" grid="1" gridSize="10" guides="1" tooltips="1" connect="1" arrows="1" fold="1" page="1" pageScale="1" pageWidth="850" pageHeight="1100" background="#ffffff" math="0" shadow="0">
      <root>
        <mxCell id="0" />
        <mxCell id="1" parent="0" />
        <mxCell id="CEjb-kwAFe80SzSRYqjY-2" value="Store" style="swimlane;fontStyle=0;childLayout=stackLayout;horizontal=1;startSize=26;fillColor=none;horizontalStack=0;resizeParent=1;resizeParentMax=0;resizeLast=0;collapsible=1;marginBottom=0;" parent="1" vertex="1">
          <mxGeometry x="611" y="400" width="140" height="108" as="geometry" />
        </mxCell>
        <mxCell id="CEjb-kwAFe80SzSRYqjY-3" value="ID: int PK" style="text;strokeColor=none;fillColor=none;align=left;verticalAlign=top;spacingLeft=4;spacingRight=4;overflow=hidden;rotatable=0;points=[[0,0.5],[1,0.5]];portConstraint=eastwest;fontStyle=1" parent="CEjb-kwAFe80SzSRYqjY-2" vertex="1">
          <mxGeometry y="26" width="140" height="26" as="geometry" />
        </mxCell>
        <mxCell id="CEjb-kwAFe80SzSRYqjY-5" value="name: string" style="text;strokeColor=none;fillColor=none;align=left;verticalAlign=top;spacingLeft=4;spacingRight=4;overflow=hidden;rotatable=0;points=[[0,0.5],[1,0.5]];portConstraint=eastwest;" parent="CEjb-kwAFe80SzSRYqjY-2" vertex="1">
          <mxGeometry y="52" width="140" height="28" as="geometry" />
        </mxCell>
        <mxCell id="CEjb-kwAFe80SzSRYqjY-7" value="address: string" style="text;strokeColor=none;fillColor=none;align=left;verticalAlign=top;spacingLeft=4;spacingRight=4;overflow=hidden;rotatable=0;points=[[0,0.5],[1,0.5]];portConstraint=eastwest;" parent="CEjb-kwAFe80SzSRYqjY-2" vertex="1">
          <mxGeometry y="80" width="140" height="28" as="geometry" />
        </mxCell>
        <mxCell id="CEjb-kwAFe80SzSRYqjY-8" value="DeliveryRoute" style="swimlane;fontStyle=0;childLayout=stackLayout;horizontal=1;startSize=26;fillColor=none;horizontalStack=0;resizeParent=1;resizeParentMax=0;resizeLast=0;collapsible=1;marginBottom=0;" parent="1" vertex="1">
          <mxGeometry x="611" y="540" width="140" height="164" as="geometry" />
        </mxCell>
        <mxCell id="CEjb-kwAFe80SzSRYqjY-9" value="ID: int PK" style="text;strokeColor=none;fillColor=none;align=left;verticalAlign=top;spacingLeft=4;spacingRight=4;overflow=hidden;rotatable=0;points=[[0,0.5],[1,0.5]];portConstraint=eastwest;fontStyle=1" parent="CEjb-kwAFe80SzSRYqjY-8" vertex="1">
          <mxGeometry y="26" width="140" height="26" as="geometry" />
        </mxCell>
        <mxCell id="CEjb-kwAFe80SzSRYqjY-10" value="dayOfWeek: int [1-7]" style="text;strokeColor=none;fillColor=none;align=left;verticalAlign=top;spacingLeft=4;spacingRight=4;overflow=hidden;rotatable=0;points=[[0,0.5],[1,0.5]];portConstraint=eastwest;" parent="CEjb-kwAFe80SzSRYqjY-8" vertex="1">
          <mxGeometry y="52" width="140" height="28" as="geometry" />
        </mxCell>
        <mxCell id="CEjb-kwAFe80SzSRYqjY-11" value="startTime: Time" style="text;strokeColor=none;fillColor=none;align=left;verticalAlign=top;spacingLeft=4;spacingRight=4;overflow=hidden;rotatable=0;points=[[0,0.5],[1,0.5]];portConstraint=eastwest;" parent="CEjb-kwAFe80SzSRYqjY-8" vertex="1">
          <mxGeometry y="80" width="140" height="28" as="geometry" />
        </mxCell>
        <mxCell id="CEjb-kwAFe80SzSRYqjY-12" value="endTime: Time" style="text;strokeColor=none;fillColor=none;align=left;verticalAlign=top;spacingLeft=4;spacingRight=4;overflow=hidden;rotatable=0;points=[[0,0.5],[1,0.5]];portConstraint=eastwest;" parent="CEjb-kwAFe80SzSRYqjY-8" vertex="1">
          <mxGeometry y="108" width="140" height="28" as="geometry" />
        </mxCell>
        <mxCell id="CEjb-kwAFe80SzSRYqjY-13" value="maxOrders: int" style="text;strokeColor=none;fillColor=none;align=left;verticalAlign=top;spacingLeft=4;spacingRight=4;overflow=hidden;rotatable=0;points=[[0,0.5],[1,0.5]];portConstraint=eastwest;" parent="CEjb-kwAFe80SzSRYqjY-8" vertex="1">
          <mxGeometry y="136" width="140" height="28" as="geometry" />
        </mxCell>
        <mxCell id="CEjb-kwAFe80SzSRYqjY-22" value="" style="endArrow=none;html=1;edgeStyle=orthogonalEdgeStyle;exitX=1.004;exitY=0.366;exitDx=0;exitDy=0;exitPerimeter=0;" parent="1" source="CEjb-kwAFe80SzSRYqjY-5" edge="1">
          <mxGeometry relative="1" as="geometry">
            <mxPoint x="661" y="590" as="sourcePoint" />
            <mxPoint x="752" y="610" as="targetPoint" />
            <Array as="points">
              <mxPoint x="821" y="462" />
              <mxPoint x="821" y="610" />
            </Array>
          </mxGeometry>
        </mxCell>
        <mxCell id="CEjb-kwAFe80SzSRYqjY-25" value="*" style="edgeLabel;html=1;align=center;verticalAlign=middle;resizable=0;points=[];" parent="CEjb-kwAFe80SzSRYqjY-22" vertex="1" connectable="0">
          <mxGeometry x="0.9673" relative="1" as="geometry">
            <mxPoint as="offset" />
          </mxGeometry>
        </mxCell>
        <mxCell id="CEjb-kwAFe80SzSRYqjY-26" value="1" style="edgeLabel;html=1;align=center;verticalAlign=middle;resizable=0;points=[];" parent="CEjb-kwAFe80SzSRYqjY-22" vertex="1" connectable="0">
          <mxGeometry x="-0.9734" y="1" relative="1" as="geometry">
            <mxPoint as="offset" />
          </mxGeometry>
        </mxCell>
        <mxCell id="CEjb-kwAFe80SzSRYqjY-27" value="Belongs-to" style="edgeLabel;html=1;align=center;verticalAlign=middle;resizable=0;points=[];" parent="CEjb-kwAFe80SzSRYqjY-22" vertex="1" connectable="0">
          <mxGeometry x="-0.0427" relative="1" as="geometry">
            <mxPoint as="offset" />
          </mxGeometry>
        </mxCell>
        <mxCell id="CEjb-kwAFe80SzSRYqjY-40" value="PostalCode" style="swimlane;fontStyle=0;childLayout=stackLayout;horizontal=1;startSize=26;fillColor=none;horizontalStack=0;resizeParent=1;resizeParentMax=0;resizeLast=0;collapsible=1;marginBottom=0;" parent="1" vertex="1">
          <mxGeometry x="891" y="642" width="140" height="108" as="geometry" />
        </mxCell>
        <mxCell id="CEjb-kwAFe80SzSRYqjY-41" value="ID: int PK" style="text;strokeColor=none;fillColor=none;align=left;verticalAlign=top;spacingLeft=4;spacingRight=4;overflow=hidden;rotatable=0;points=[[0,0.5],[1,0.5]];portConstraint=eastwest;fontStyle=1" parent="CEjb-kwAFe80SzSRYqjY-40" vertex="1">
          <mxGeometry y="26" width="140" height="26" as="geometry" />
        </mxCell>
        <mxCell id="CEjb-kwAFe80SzSRYqjY-42" value="code: string" style="text;strokeColor=none;fillColor=none;align=left;verticalAlign=top;spacingLeft=4;spacingRight=4;overflow=hidden;rotatable=0;points=[[0,0.5],[1,0.5]];portConstraint=eastwest;" parent="CEjb-kwAFe80SzSRYqjY-40" vertex="1">
          <mxGeometry y="52" width="140" height="28" as="geometry" />
        </mxCell>
        <mxCell id="CEjb-kwAFe80SzSRYqjY-43" value="country: string" style="text;strokeColor=none;fillColor=none;align=left;verticalAlign=top;spacingLeft=4;spacingRight=4;overflow=hidden;rotatable=0;points=[[0,0.5],[1,0.5]];portConstraint=eastwest;" parent="CEjb-kwAFe80SzSRYqjY-40" vertex="1">
          <mxGeometry y="80" width="140" height="28" as="geometry" />
        </mxCell>
        <mxCell id="CEjb-kwAFe80SzSRYqjY-44" value="" style="endArrow=none;html=1;edgeStyle=orthogonalEdgeStyle;exitX=1;exitY=0.5;exitDx=0;exitDy=0;entryX=-0.02;entryY=0.155;entryDx=0;entryDy=0;entryPerimeter=0;" parent="1" source="CEjb-kwAFe80SzSRYqjY-12" target="CEjb-kwAFe80SzSRYqjY-42" edge="1">
          <mxGeometry relative="1" as="geometry">
            <mxPoint x="761.5600000000001" y="472.24799999999993" as="sourcePoint" />
            <mxPoint x="762" y="620" as="targetPoint" />
            <Array as="points">
              <mxPoint x="831" y="662" />
              <mxPoint x="831" y="706" />
            </Array>
          </mxGeometry>
        </mxCell>
        <mxCell id="CEjb-kwAFe80SzSRYqjY-45" value="*" style="edgeLabel;html=1;align=center;verticalAlign=middle;resizable=0;points=[];" parent="CEjb-kwAFe80SzSRYqjY-44" vertex="1" connectable="0">
          <mxGeometry x="0.9673" relative="1" as="geometry">
            <mxPoint as="offset" />
          </mxGeometry>
        </mxCell>
        <mxCell id="CEjb-kwAFe80SzSRYqjY-46" value="*" style="edgeLabel;html=1;align=center;verticalAlign=middle;resizable=0;points=[];" parent="CEjb-kwAFe80SzSRYqjY-44" vertex="1" connectable="0">
          <mxGeometry x="-0.9734" y="1" relative="1" as="geometry">
            <mxPoint as="offset" />
          </mxGeometry>
        </mxCell>
        <mxCell id="CEjb-kwAFe80SzSRYqjY-47" value="Belongs-to" style="edgeLabel;html=1;align=center;verticalAlign=middle;resizable=0;points=[];" parent="CEjb-kwAFe80SzSRYqjY-44" vertex="1" connectable="0">
          <mxGeometry x="-0.0427" relative="1" as="geometry">
            <mxPoint as="offset" />
          </mxGeometry>
        </mxCell>
        <mxCell id="CEjb-kwAFe80SzSRYqjY-50" value="Collector" style="swimlane;fontStyle=0;childLayout=stackLayout;horizontal=1;startSize=26;fillColor=none;horizontalStack=0;resizeParent=1;resizeParentMax=0;resizeLast=0;collapsible=1;marginBottom=0;" parent="1" vertex="1">
          <mxGeometry x="80" y="442" width="150" height="108" as="geometry" />
        </mxCell>
        <mxCell id="CEjb-kwAFe80SzSRYqjY-51" value="ID: int PK" style="text;strokeColor=none;fillColor=none;align=left;verticalAlign=top;spacingLeft=4;spacingRight=4;overflow=hidden;rotatable=0;points=[[0,0.5],[1,0.5]];portConstraint=eastwest;fontStyle=1" parent="CEjb-kwAFe80SzSRYqjY-50" vertex="1">
          <mxGeometry y="26" width="150" height="26" as="geometry" />
        </mxCell>
        <mxCell id="CEjb-kwAFe80SzSRYqjY-52" value="name: string" style="text;strokeColor=none;fillColor=none;align=left;verticalAlign=top;spacingLeft=4;spacingRight=4;overflow=hidden;rotatable=0;points=[[0,0.5],[1,0.5]];portConstraint=eastwest;" parent="CEjb-kwAFe80SzSRYqjY-50" vertex="1">
          <mxGeometry y="52" width="150" height="28" as="geometry" />
        </mxCell>
        <mxCell id="CEjb-kwAFe80SzSRYqjY-53" value="maxOrderPerHour?: int" style="text;strokeColor=none;fillColor=none;align=left;verticalAlign=top;spacingLeft=4;spacingRight=4;overflow=hidden;rotatable=0;points=[[0,0.5],[1,0.5]];portConstraint=eastwest;" parent="CEjb-kwAFe80SzSRYqjY-50" vertex="1">
          <mxGeometry y="80" width="150" height="28" as="geometry" />
        </mxCell>
        <mxCell id="CEjb-kwAFe80SzSRYqjY-54" value="CollectorHours" style="swimlane;fontStyle=0;childLayout=stackLayout;horizontal=1;startSize=26;fillColor=none;horizontalStack=0;resizeParent=1;resizeParentMax=0;resizeLast=0;collapsible=1;marginBottom=0;" parent="1" vertex="1">
          <mxGeometry x="340" y="432" width="140" height="136" as="geometry" />
        </mxCell>
        <mxCell id="CEjb-kwAFe80SzSRYqjY-55" value="ID: int PK" style="text;strokeColor=none;fillColor=none;align=left;verticalAlign=top;spacingLeft=4;spacingRight=4;overflow=hidden;rotatable=0;points=[[0,0.5],[1,0.5]];portConstraint=eastwest;fontStyle=1" parent="CEjb-kwAFe80SzSRYqjY-54" vertex="1">
          <mxGeometry y="26" width="140" height="26" as="geometry" />
        </mxCell>
        <mxCell id="CEjb-kwAFe80SzSRYqjY-56" value="dayOfWeek: int [1-7]" style="text;strokeColor=none;fillColor=none;align=left;verticalAlign=top;spacingLeft=4;spacingRight=4;overflow=hidden;rotatable=0;points=[[0,0.5],[1,0.5]];portConstraint=eastwest;" parent="CEjb-kwAFe80SzSRYqjY-54" vertex="1">
          <mxGeometry y="52" width="140" height="28" as="geometry" />
        </mxCell>
        <mxCell id="CEjb-kwAFe80SzSRYqjY-58" value="startTime: Time" style="text;strokeColor=none;fillColor=none;align=left;verticalAlign=top;spacingLeft=4;spacingRight=4;overflow=hidden;rotatable=0;points=[[0,0.5],[1,0.5]];portConstraint=eastwest;" parent="CEjb-kwAFe80SzSRYqjY-54" vertex="1">
          <mxGeometry y="80" width="140" height="28" as="geometry" />
        </mxCell>
        <mxCell id="CEjb-kwAFe80SzSRYqjY-57" value="endTime: Time" style="text;strokeColor=none;fillColor=none;align=left;verticalAlign=top;spacingLeft=4;spacingRight=4;overflow=hidden;rotatable=0;points=[[0,0.5],[1,0.5]];portConstraint=eastwest;" parent="CEjb-kwAFe80SzSRYqjY-54" vertex="1">
          <mxGeometry y="108" width="140" height="28" as="geometry" />
        </mxCell>
        <mxCell id="CEjb-kwAFe80SzSRYqjY-59" value="" style="endArrow=none;html=1;edgeStyle=orthogonalEdgeStyle;entryX=0;entryY=0.5;entryDx=0;entryDy=0;" parent="1" target="CEjb-kwAFe80SzSRYqjY-56" edge="1">
          <mxGeometry relative="1" as="geometry">
            <mxPoint x="232" y="500" as="sourcePoint" />
            <mxPoint x="240.44" y="687.79" as="targetPoint" />
            <Array as="points">
              <mxPoint x="340" y="500" />
            </Array>
          </mxGeometry>
        </mxCell>
        <mxCell id="CEjb-kwAFe80SzSRYqjY-60" value="*" style="edgeLabel;html=1;align=center;verticalAlign=middle;resizable=0;points=[];" parent="CEjb-kwAFe80SzSRYqjY-59" vertex="1" connectable="0">
          <mxGeometry x="0.9673" relative="1" as="geometry">
            <mxPoint as="offset" />
          </mxGeometry>
        </mxCell>
        <mxCell id="CEjb-kwAFe80SzSRYqjY-61" value="1" style="edgeLabel;html=1;align=center;verticalAlign=middle;resizable=0;points=[];" parent="CEjb-kwAFe80SzSRYqjY-59" vertex="1" connectable="0">
          <mxGeometry x="-0.9734" y="1" relative="1" as="geometry">
            <mxPoint as="offset" />
          </mxGeometry>
        </mxCell>
        <mxCell id="CEjb-kwAFe80SzSRYqjY-62" value="Belongs-to" style="edgeLabel;html=1;align=center;verticalAlign=middle;resizable=0;points=[];" parent="CEjb-kwAFe80SzSRYqjY-59" vertex="1" connectable="0">
          <mxGeometry x="-0.0427" relative="1" as="geometry">
            <mxPoint as="offset" />
          </mxGeometry>
        </mxCell>
        <mxCell id="CEjb-kwAFe80SzSRYqjY-63" value="" style="endArrow=none;html=1;edgeStyle=orthogonalEdgeStyle;exitX=0;exitY=0.5;exitDx=0;exitDy=0;entryX=1;entryY=0.5;entryDx=0;entryDy=0;" parent="1" source="CEjb-kwAFe80SzSRYqjY-3" target="CEjb-kwAFe80SzSRYqjY-55" edge="1">
          <mxGeometry relative="1" as="geometry">
            <mxPoint x="192" y="422" as="sourcePoint" />
            <mxPoint x="490" y="471" as="targetPoint" />
            <Array as="points">
              <mxPoint x="550" y="439" />
              <mxPoint x="550" y="450" />
              <mxPoint x="540" y="450" />
              <mxPoint x="540" y="471" />
            </Array>
          </mxGeometry>
        </mxCell>
        <mxCell id="CEjb-kwAFe80SzSRYqjY-64" value="*" style="edgeLabel;html=1;align=center;verticalAlign=middle;resizable=0;points=[];" parent="CEjb-kwAFe80SzSRYqjY-63" vertex="1" connectable="0">
          <mxGeometry x="0.9673" relative="1" as="geometry">
            <mxPoint as="offset" />
          </mxGeometry>
        </mxCell>
        <mxCell id="CEjb-kwAFe80SzSRYqjY-65" value="1" style="edgeLabel;html=1;align=center;verticalAlign=middle;resizable=0;points=[];" parent="CEjb-kwAFe80SzSRYqjY-63" vertex="1" connectable="0">
          <mxGeometry x="-0.9734" y="1" relative="1" as="geometry">
            <mxPoint as="offset" />
          </mxGeometry>
        </mxCell>
        <mxCell id="CEjb-kwAFe80SzSRYqjY-66" value="Belongs-to" style="edgeLabel;html=1;align=center;verticalAlign=middle;resizable=0;points=[];" parent="CEjb-kwAFe80SzSRYqjY-63" vertex="1" connectable="0">
          <mxGeometry x="-0.0427" relative="1" as="geometry">
            <mxPoint as="offset" />
          </mxGeometry>
        </mxCell>
        <mxCell id="CEjb-kwAFe80SzSRYqjY-67" value="Transport" style="swimlane;fontStyle=0;childLayout=stackLayout;horizontal=1;startSize=26;fillColor=none;horizontalStack=0;resizeParent=1;resizeParentMax=0;resizeLast=0;collapsible=1;marginBottom=0;" parent="1" vertex="1">
          <mxGeometry x="370" y="620" width="140" height="80" as="geometry" />
        </mxCell>
        <mxCell id="CEjb-kwAFe80SzSRYqjY-68" value="ID: int PK" style="text;strokeColor=none;fillColor=none;align=left;verticalAlign=top;spacingLeft=4;spacingRight=4;overflow=hidden;rotatable=0;points=[[0,0.5],[1,0.5]];portConstraint=eastwest;fontStyle=1" parent="CEjb-kwAFe80SzSRYqjY-67" vertex="1">
          <mxGeometry y="26" width="140" height="26" as="geometry" />
        </mxCell>
        <mxCell id="CEjb-kwAFe80SzSRYqjY-69" value="date: Date" style="text;strokeColor=none;fillColor=none;align=left;verticalAlign=top;spacingLeft=4;spacingRight=4;overflow=hidden;rotatable=0;points=[[0,0.5],[1,0.5]];portConstraint=eastwest;" parent="CEjb-kwAFe80SzSRYqjY-67" vertex="1">
          <mxGeometry y="52" width="140" height="28" as="geometry" />
        </mxCell>
        <mxCell id="CEjb-kwAFe80SzSRYqjY-71" value="" style="endArrow=none;html=1;edgeStyle=orthogonalEdgeStyle;entryX=0;entryY=0.5;entryDx=0;entryDy=0;exitX=0.994;exitY=0.077;exitDx=0;exitDy=0;exitPerimeter=0;" parent="1" source="CEjb-kwAFe80SzSRYqjY-53" target="CEjb-kwAFe80SzSRYqjY-68" edge="1">
          <mxGeometry relative="1" as="geometry">
            <mxPoint x="242" y="510" as="sourcePoint" />
            <mxPoint x="350" y="508" as="targetPoint" />
            <Array as="points">
              <mxPoint x="229" y="520" />
              <mxPoint x="260" y="520" />
              <mxPoint x="260" y="659" />
            </Array>
          </mxGeometry>
        </mxCell>
        <mxCell id="CEjb-kwAFe80SzSRYqjY-72" value="*" style="edgeLabel;html=1;align=center;verticalAlign=middle;resizable=0;points=[];" parent="CEjb-kwAFe80SzSRYqjY-71" vertex="1" connectable="0">
          <mxGeometry x="0.9673" relative="1" as="geometry">
            <mxPoint as="offset" />
          </mxGeometry>
        </mxCell>
        <mxCell id="CEjb-kwAFe80SzSRYqjY-73" value="1" style="edgeLabel;html=1;align=center;verticalAlign=middle;resizable=0;points=[];" parent="CEjb-kwAFe80SzSRYqjY-71" vertex="1" connectable="0">
          <mxGeometry x="-0.9734" y="1" relative="1" as="geometry">
            <mxPoint as="offset" />
          </mxGeometry>
        </mxCell>
        <mxCell id="CEjb-kwAFe80SzSRYqjY-74" value="Belongs-to" style="edgeLabel;html=1;align=center;verticalAlign=middle;resizable=0;points=[];" parent="CEjb-kwAFe80SzSRYqjY-71" vertex="1" connectable="0">
          <mxGeometry x="-0.0427" relative="1" as="geometry">
            <mxPoint as="offset" />
          </mxGeometry>
        </mxCell>
        <mxCell id="CEjb-kwAFe80SzSRYqjY-75" value="" style="endArrow=none;html=1;edgeStyle=orthogonalEdgeStyle;exitX=0;exitY=0.5;exitDx=0;exitDy=0;entryX=1;entryY=0.5;entryDx=0;entryDy=0;" parent="1" source="CEjb-kwAFe80SzSRYqjY-11" target="CEjb-kwAFe80SzSRYqjY-68" edge="1">
          <mxGeometry relative="1" as="geometry">
            <mxPoint x="641" y="630" as="sourcePoint" />
            <mxPoint x="510" y="662" as="targetPoint" />
            <Array as="points">
              <mxPoint x="611" y="630" />
              <mxPoint x="580" y="630" />
              <mxPoint x="580" y="641" />
              <mxPoint x="570" y="641" />
              <mxPoint x="570" y="662" />
              <mxPoint x="510" y="662" />
            </Array>
          </mxGeometry>
        </mxCell>
        <mxCell id="CEjb-kwAFe80SzSRYqjY-76" value="*" style="edgeLabel;html=1;align=center;verticalAlign=middle;resizable=0;points=[];" parent="CEjb-kwAFe80SzSRYqjY-75" vertex="1" connectable="0">
          <mxGeometry x="0.9673" relative="1" as="geometry">
            <mxPoint as="offset" />
          </mxGeometry>
        </mxCell>
        <mxCell id="CEjb-kwAFe80SzSRYqjY-77" value="1" style="edgeLabel;html=1;align=center;verticalAlign=middle;resizable=0;points=[];" parent="CEjb-kwAFe80SzSRYqjY-75" vertex="1" connectable="0">
          <mxGeometry x="-0.9734" y="1" relative="1" as="geometry">
            <mxPoint as="offset" />
          </mxGeometry>
        </mxCell>
        <mxCell id="CEjb-kwAFe80SzSRYqjY-78" value="Belongs-to" style="edgeLabel;html=1;align=center;verticalAlign=middle;resizable=0;points=[];" parent="CEjb-kwAFe80SzSRYqjY-75" vertex="1" connectable="0">
          <mxGeometry x="-0.0427" relative="1" as="geometry">
            <mxPoint as="offset" />
          </mxGeometry>
        </mxCell>
        <mxCell id="CEjb-kwAFe80SzSRYqjY-79" value="Products" style="swimlane;fontStyle=0;childLayout=stackLayout;horizontal=1;startSize=26;fillColor=none;horizontalStack=0;resizeParent=1;resizeParentMax=0;resizeLast=0;collapsible=1;marginBottom=0;" parent="1" vertex="1">
          <mxGeometry x="407" y="770" width="140" height="220" as="geometry" />
        </mxCell>
        <mxCell id="CEjb-kwAFe80SzSRYqjY-80" value="ID: int PK" style="text;strokeColor=none;fillColor=none;align=left;verticalAlign=top;spacingLeft=4;spacingRight=4;overflow=hidden;rotatable=0;points=[[0,0.5],[1,0.5]];portConstraint=eastwest;fontStyle=1" parent="CEjb-kwAFe80SzSRYqjY-79" vertex="1">
          <mxGeometry y="26" width="140" height="26" as="geometry" />
        </mxCell>
        <mxCell id="CEjb-kwAFe80SzSRYqjY-81" value="name: string" style="text;strokeColor=none;fillColor=none;align=left;verticalAlign=top;spacingLeft=4;spacingRight=4;overflow=hidden;rotatable=0;points=[[0,0.5],[1,0.5]];portConstraint=eastwest;" parent="CEjb-kwAFe80SzSRYqjY-79" vertex="1">
          <mxGeometry y="52" width="140" height="28" as="geometry" />
        </mxCell>
        <mxCell id="CEjb-kwAFe80SzSRYqjY-82" value="size?: type?" style="text;strokeColor=none;fillColor=none;align=left;verticalAlign=top;spacingLeft=4;spacingRight=4;overflow=hidden;rotatable=0;points=[[0,0.5],[1,0.5]];portConstraint=eastwest;" parent="CEjb-kwAFe80SzSRYqjY-79" vertex="1">
          <mxGeometry y="80" width="140" height="28" as="geometry" />
        </mxCell>
        <mxCell id="CEjb-kwAFe80SzSRYqjY-83" value="energy: float" style="text;strokeColor=none;fillColor=none;align=left;verticalAlign=top;spacingLeft=4;spacingRight=4;overflow=hidden;rotatable=0;points=[[0,0.5],[1,0.5]];portConstraint=eastwest;" parent="CEjb-kwAFe80SzSRYqjY-79" vertex="1">
          <mxGeometry y="108" width="140" height="28" as="geometry" />
        </mxCell>
        <mxCell id="CEjb-kwAFe80SzSRYqjY-84" value="protein: float" style="text;strokeColor=none;fillColor=none;align=left;verticalAlign=top;spacingLeft=4;spacingRight=4;overflow=hidden;rotatable=0;points=[[0,0.5],[1,0.5]];portConstraint=eastwest;" parent="CEjb-kwAFe80SzSRYqjY-79" vertex="1">
          <mxGeometry y="136" width="140" height="28" as="geometry" />
        </mxCell>
        <mxCell id="CEjb-kwAFe80SzSRYqjY-86" value="carbohydrates: float" style="text;strokeColor=none;fillColor=none;align=left;verticalAlign=top;spacingLeft=4;spacingRight=4;overflow=hidden;rotatable=0;points=[[0,0.5],[1,0.5]];portConstraint=eastwest;" parent="CEjb-kwAFe80SzSRYqjY-79" vertex="1">
          <mxGeometry y="164" width="140" height="28" as="geometry" />
        </mxCell>
        <mxCell id="CEjb-kwAFe80SzSRYqjY-85" value="fat: float" style="text;strokeColor=none;fillColor=none;align=left;verticalAlign=top;spacingLeft=4;spacingRight=4;overflow=hidden;rotatable=0;points=[[0,0.5],[1,0.5]];portConstraint=eastwest;" parent="CEjb-kwAFe80SzSRYqjY-79" vertex="1">
          <mxGeometry y="192" width="140" height="28" as="geometry" />
        </mxCell>
        <mxCell id="CEjb-kwAFe80SzSRYqjY-95" value="Temperature" style="swimlane;fontStyle=0;childLayout=stackLayout;horizontal=1;startSize=26;fillColor=none;horizontalStack=0;resizeParent=1;resizeParentMax=0;resizeLast=0;collapsible=1;marginBottom=0;" parent="1" vertex="1">
          <mxGeometry x="80" y="730" width="140" height="80" as="geometry" />
        </mxCell>
        <mxCell id="CEjb-kwAFe80SzSRYqjY-96" value="ID: int PK" style="text;strokeColor=none;fillColor=none;align=left;verticalAlign=top;spacingLeft=4;spacingRight=4;overflow=hidden;rotatable=0;points=[[0,0.5],[1,0.5]];portConstraint=eastwest;fontStyle=1" parent="CEjb-kwAFe80SzSRYqjY-95" vertex="1">
          <mxGeometry y="26" width="140" height="26" as="geometry" />
        </mxCell>
        <mxCell id="CEjb-kwAFe80SzSRYqjY-97" value="name: string" style="text;strokeColor=none;fillColor=none;align=left;verticalAlign=top;spacingLeft=4;spacingRight=4;overflow=hidden;rotatable=0;points=[[0,0.5],[1,0.5]];portConstraint=eastwest;" parent="CEjb-kwAFe80SzSRYqjY-95" vertex="1">
          <mxGeometry y="52" width="140" height="28" as="geometry" />
        </mxCell>
        <mxCell id="CEjb-kwAFe80SzSRYqjY-99" value="Measurement" style="swimlane;fontStyle=0;childLayout=stackLayout;horizontal=1;startSize=26;fillColor=none;horizontalStack=0;resizeParent=1;resizeParentMax=0;resizeLast=0;collapsible=1;marginBottom=0;" parent="1" vertex="1">
          <mxGeometry x="80" y="820" width="140" height="80" as="geometry" />
        </mxCell>
        <mxCell id="CEjb-kwAFe80SzSRYqjY-100" value="ID: int PK" style="text;strokeColor=none;fillColor=none;align=left;verticalAlign=top;spacingLeft=4;spacingRight=4;overflow=hidden;rotatable=0;points=[[0,0.5],[1,0.5]];portConstraint=eastwest;fontStyle=1" parent="CEjb-kwAFe80SzSRYqjY-99" vertex="1">
          <mxGeometry y="26" width="140" height="26" as="geometry" />
        </mxCell>
        <mxCell id="CEjb-kwAFe80SzSRYqjY-101" value="name: string" style="text;strokeColor=none;fillColor=none;align=left;verticalAlign=top;spacingLeft=4;spacingRight=4;overflow=hidden;rotatable=0;points=[[0,0.5],[1,0.5]];portConstraint=eastwest;" parent="CEjb-kwAFe80SzSRYqjY-99" vertex="1">
          <mxGeometry y="52" width="140" height="28" as="geometry" />
        </mxCell>
        <mxCell id="CEjb-kwAFe80SzSRYqjY-102" value="Diets" style="swimlane;fontStyle=0;childLayout=stackLayout;horizontal=1;startSize=26;fillColor=none;horizontalStack=0;resizeParent=1;resizeParentMax=0;resizeLast=0;collapsible=1;marginBottom=0;" parent="1" vertex="1">
          <mxGeometry x="80" y="920" width="140" height="80" as="geometry" />
        </mxCell>
        <mxCell id="CEjb-kwAFe80SzSRYqjY-103" value="ID: int PK" style="text;strokeColor=none;fillColor=none;align=left;verticalAlign=top;spacingLeft=4;spacingRight=4;overflow=hidden;rotatable=0;points=[[0,0.5],[1,0.5]];portConstraint=eastwest;fontStyle=1" parent="CEjb-kwAFe80SzSRYqjY-102" vertex="1">
          <mxGeometry y="26" width="140" height="26" as="geometry" />
        </mxCell>
        <mxCell id="CEjb-kwAFe80SzSRYqjY-104" value="name: string" style="text;strokeColor=none;fillColor=none;align=left;verticalAlign=top;spacingLeft=4;spacingRight=4;overflow=hidden;rotatable=0;points=[[0,0.5],[1,0.5]];portConstraint=eastwest;" parent="CEjb-kwAFe80SzSRYqjY-102" vertex="1">
          <mxGeometry y="52" width="140" height="28" as="geometry" />
        </mxCell>
        <mxCell id="CEjb-kwAFe80SzSRYqjY-105" value="RawMaterials" style="swimlane;fontStyle=0;childLayout=stackLayout;horizontal=1;startSize=26;fillColor=none;horizontalStack=0;resizeParent=1;resizeParentMax=0;resizeLast=0;collapsible=1;marginBottom=0;" parent="1" vertex="1">
          <mxGeometry x="80" y="1010" width="140" height="80" as="geometry" />
        </mxCell>
        <mxCell id="CEjb-kwAFe80SzSRYqjY-106" value="ID: int PK" style="text;strokeColor=none;fillColor=none;align=left;verticalAlign=top;spacingLeft=4;spacingRight=4;overflow=hidden;rotatable=0;points=[[0,0.5],[1,0.5]];portConstraint=eastwest;fontStyle=1" parent="CEjb-kwAFe80SzSRYqjY-105" vertex="1">
          <mxGeometry y="26" width="140" height="26" as="geometry" />
        </mxCell>
        <mxCell id="CEjb-kwAFe80SzSRYqjY-107" value="name: string" style="text;strokeColor=none;fillColor=none;align=left;verticalAlign=top;spacingLeft=4;spacingRight=4;overflow=hidden;rotatable=0;points=[[0,0.5],[1,0.5]];portConstraint=eastwest;" parent="CEjb-kwAFe80SzSRYqjY-105" vertex="1">
          <mxGeometry y="52" width="140" height="28" as="geometry" />
        </mxCell>
        <mxCell id="CEjb-kwAFe80SzSRYqjY-111" value="" style="endArrow=none;html=1;edgeStyle=orthogonalEdgeStyle;entryX=0;entryY=0.5;entryDx=0;entryDy=0;exitX=1;exitY=0.5;exitDx=0;exitDy=0;" parent="1" source="CEjb-kwAFe80SzSRYqjY-100" target="CEjb-kwAFe80SzSRYqjY-82" edge="1">
          <mxGeometry relative="1" as="geometry">
            <mxPoint x="270.0200000000001" y="785.1559999999997" as="sourcePoint" />
            <mxPoint x="410.86" y="920" as="targetPoint" />
            <Array as="points">
              <mxPoint x="407" y="859" />
            </Array>
          </mxGeometry>
        </mxCell>
        <mxCell id="CEjb-kwAFe80SzSRYqjY-112" value="*" style="edgeLabel;html=1;align=center;verticalAlign=middle;resizable=0;points=[];" parent="CEjb-kwAFe80SzSRYqjY-111" vertex="1" connectable="0">
          <mxGeometry x="0.9673" relative="1" as="geometry">
            <mxPoint as="offset" />
          </mxGeometry>
        </mxCell>
        <mxCell id="CEjb-kwAFe80SzSRYqjY-113" value="1" style="edgeLabel;html=1;align=center;verticalAlign=middle;resizable=0;points=[];" parent="CEjb-kwAFe80SzSRYqjY-111" vertex="1" connectable="0">
          <mxGeometry x="-0.9734" y="1" relative="1" as="geometry">
            <mxPoint as="offset" />
          </mxGeometry>
        </mxCell>
        <mxCell id="CEjb-kwAFe80SzSRYqjY-114" value="Belongs-to" style="edgeLabel;html=1;align=center;verticalAlign=middle;resizable=0;points=[];" parent="CEjb-kwAFe80SzSRYqjY-111" vertex="1" connectable="0">
          <mxGeometry x="-0.0427" relative="1" as="geometry">
            <mxPoint as="offset" />
          </mxGeometry>
        </mxCell>
        <mxCell id="CEjb-kwAFe80SzSRYqjY-115" value="" style="endArrow=none;html=1;edgeStyle=orthogonalEdgeStyle;exitX=1;exitY=0.5;exitDx=0;exitDy=0;" parent="1" source="CEjb-kwAFe80SzSRYqjY-97" edge="1">
          <mxGeometry relative="1" as="geometry">
            <mxPoint x="220" y="805" as="sourcePoint" />
            <mxPoint x="410" y="810" as="targetPoint" />
            <Array as="points">
              <mxPoint x="407" y="796" />
              <mxPoint x="407" y="810" />
            </Array>
          </mxGeometry>
        </mxCell>
        <mxCell id="CEjb-kwAFe80SzSRYqjY-116" value="*" style="edgeLabel;html=1;align=center;verticalAlign=middle;resizable=0;points=[];" parent="CEjb-kwAFe80SzSRYqjY-115" vertex="1" connectable="0">
          <mxGeometry x="0.9673" relative="1" as="geometry">
            <mxPoint as="offset" />
          </mxGeometry>
        </mxCell>
        <mxCell id="CEjb-kwAFe80SzSRYqjY-117" value="1" style="edgeLabel;html=1;align=center;verticalAlign=middle;resizable=0;points=[];" parent="CEjb-kwAFe80SzSRYqjY-115" vertex="1" connectable="0">
          <mxGeometry x="-0.9734" y="1" relative="1" as="geometry">
            <mxPoint as="offset" />
          </mxGeometry>
        </mxCell>
        <mxCell id="CEjb-kwAFe80SzSRYqjY-118" value="Belongs-to" style="edgeLabel;html=1;align=center;verticalAlign=middle;resizable=0;points=[];" parent="CEjb-kwAFe80SzSRYqjY-115" vertex="1" connectable="0">
          <mxGeometry x="-0.0427" relative="1" as="geometry">
            <mxPoint as="offset" />
          </mxGeometry>
        </mxCell>
        <mxCell id="CEjb-kwAFe80SzSRYqjY-119" value="" style="endArrow=none;html=1;edgeStyle=orthogonalEdgeStyle;entryX=0;entryY=0.5;entryDx=0;entryDy=0;exitX=1;exitY=0.5;exitDx=0;exitDy=0;" parent="1" source="CEjb-kwAFe80SzSRYqjY-80" target="CEjb-kwAFe80SzSRYqjY-5" edge="1">
          <mxGeometry relative="1" as="geometry">
            <mxPoint x="580" y="810" as="sourcePoint" />
            <mxPoint x="797.2" y="854.3399999999999" as="targetPoint" />
            <Array as="points">
              <mxPoint x="543" y="809" />
              <mxPoint x="543" y="810" />
              <mxPoint x="590" y="810" />
              <mxPoint x="590" y="466" />
            </Array>
          </mxGeometry>
        </mxCell>
        <mxCell id="CEjb-kwAFe80SzSRYqjY-120" value="*" style="edgeLabel;html=1;align=center;verticalAlign=middle;resizable=0;points=[];" parent="CEjb-kwAFe80SzSRYqjY-119" vertex="1" connectable="0">
          <mxGeometry x="0.9673" relative="1" as="geometry">
            <mxPoint as="offset" />
          </mxGeometry>
        </mxCell>
        <mxCell id="CEjb-kwAFe80SzSRYqjY-121" value="*" style="edgeLabel;html=1;align=center;verticalAlign=middle;resizable=0;points=[];" parent="CEjb-kwAFe80SzSRYqjY-119" vertex="1" connectable="0">
          <mxGeometry x="-0.9734" y="1" relative="1" as="geometry">
            <mxPoint as="offset" />
          </mxGeometry>
        </mxCell>
        <mxCell id="CEjb-kwAFe80SzSRYqjY-122" value="Belongs-to" style="edgeLabel;html=1;align=center;verticalAlign=middle;resizable=0;points=[];" parent="CEjb-kwAFe80SzSRYqjY-119" vertex="1" connectable="0">
          <mxGeometry x="-0.0427" relative="1" as="geometry">
            <mxPoint y="68" as="offset" />
          </mxGeometry>
        </mxCell>
        <mxCell id="CEjb-kwAFe80SzSRYqjY-123" value="" style="endArrow=none;html=1;edgeStyle=orthogonalEdgeStyle;entryX=1;entryY=0.75;entryDx=0;entryDy=0;exitX=0.007;exitY=0.75;exitDx=0;exitDy=0;exitPerimeter=0;" parent="1" source="CEjb-kwAFe80SzSRYqjY-84" target="CEjb-kwAFe80SzSRYqjY-102" edge="1">
          <mxGeometry relative="1" as="geometry">
            <mxPoint x="557" y="819" as="sourcePoint" />
            <mxPoint x="621" y="476" as="targetPoint" />
            <Array as="points">
              <mxPoint x="408" y="920" />
              <mxPoint x="390" y="920" />
              <mxPoint x="390" y="960" />
              <mxPoint x="220" y="960" />
            </Array>
          </mxGeometry>
        </mxCell>
        <mxCell id="CEjb-kwAFe80SzSRYqjY-124" value="*" style="edgeLabel;html=1;align=center;verticalAlign=middle;resizable=0;points=[];" parent="CEjb-kwAFe80SzSRYqjY-123" vertex="1" connectable="0">
          <mxGeometry x="0.9673" relative="1" as="geometry">
            <mxPoint as="offset" />
          </mxGeometry>
        </mxCell>
        <mxCell id="CEjb-kwAFe80SzSRYqjY-125" value="*" style="edgeLabel;html=1;align=center;verticalAlign=middle;resizable=0;points=[];" parent="CEjb-kwAFe80SzSRYqjY-123" vertex="1" connectable="0">
          <mxGeometry x="-0.9734" y="1" relative="1" as="geometry">
            <mxPoint as="offset" />
          </mxGeometry>
        </mxCell>
        <mxCell id="CEjb-kwAFe80SzSRYqjY-126" value="Belongs-to" style="edgeLabel;html=1;align=center;verticalAlign=middle;resizable=0;points=[];" parent="CEjb-kwAFe80SzSRYqjY-123" vertex="1" connectable="0">
          <mxGeometry x="-0.0427" relative="1" as="geometry">
            <mxPoint x="-23" as="offset" />
          </mxGeometry>
        </mxCell>
        <mxCell id="CEjb-kwAFe80SzSRYqjY-127" value="" style="endArrow=none;html=1;edgeStyle=orthogonalEdgeStyle;entryX=1;entryY=0.5;entryDx=0;entryDy=0;exitX=-0.007;exitY=0.214;exitDx=0;exitDy=0;exitPerimeter=0;" parent="1" source="CEjb-kwAFe80SzSRYqjY-85" target="CEjb-kwAFe80SzSRYqjY-106" edge="1">
          <mxGeometry relative="1" as="geometry">
            <mxPoint x="417.98" y="1007" as="sourcePoint" />
            <mxPoint x="230" y="1060" as="targetPoint" />
            <Array as="points">
              <mxPoint x="390" y="968" />
              <mxPoint x="390" y="1040" />
              <mxPoint x="230" y="1040" />
              <mxPoint x="230" y="1049" />
            </Array>
          </mxGeometry>
        </mxCell>
        <mxCell id="CEjb-kwAFe80SzSRYqjY-128" value="*" style="edgeLabel;html=1;align=center;verticalAlign=middle;resizable=0;points=[];" parent="CEjb-kwAFe80SzSRYqjY-127" vertex="1" connectable="0">
          <mxGeometry x="0.9673" relative="1" as="geometry">
            <mxPoint as="offset" />
          </mxGeometry>
        </mxCell>
        <mxCell id="CEjb-kwAFe80SzSRYqjY-129" value="*" style="edgeLabel;html=1;align=center;verticalAlign=middle;resizable=0;points=[];" parent="CEjb-kwAFe80SzSRYqjY-127" vertex="1" connectable="0">
          <mxGeometry x="-0.9734" y="1" relative="1" as="geometry">
            <mxPoint as="offset" />
          </mxGeometry>
        </mxCell>
        <mxCell id="CEjb-kwAFe80SzSRYqjY-130" value="Belongs-to" style="edgeLabel;html=1;align=center;verticalAlign=middle;resizable=0;points=[];" parent="CEjb-kwAFe80SzSRYqjY-127" vertex="1" connectable="0">
          <mxGeometry x="-0.0427" relative="1" as="geometry">
            <mxPoint x="-23" as="offset" />
          </mxGeometry>
        </mxCell>
        <mxCell id="CEjb-kwAFe80SzSRYqjY-131" value="" style="endArrow=none;html=1;edgeStyle=orthogonalEdgeStyle;" parent="1" edge="1">
          <mxGeometry relative="1" as="geometry">
            <mxPoint x="320" y="1050" as="sourcePoint" />
            <mxPoint x="320" y="1100" as="targetPoint" />
            <Array as="points">
              <mxPoint x="320" y="1040" />
              <mxPoint x="320" y="1110" />
            </Array>
          </mxGeometry>
        </mxCell>
        <mxCell id="CEjb-kwAFe80SzSRYqjY-134" value="RawMaterialProducts" style="swimlane;fontStyle=0;childLayout=stackLayout;horizontal=1;startSize=26;fillColor=none;horizontalStack=0;resizeParent=1;resizeParentMax=0;resizeLast=0;collapsible=1;marginBottom=0;" parent="1" vertex="1">
          <mxGeometry x="260" y="1100" width="140" height="54" as="geometry" />
        </mxCell>
        <mxCell id="CEjb-kwAFe80SzSRYqjY-136" value="order: Int" style="text;strokeColor=none;fillColor=none;align=left;verticalAlign=top;spacingLeft=4;spacingRight=4;overflow=hidden;rotatable=0;points=[[0,0.5],[1,0.5]];portConstraint=eastwest;" parent="CEjb-kwAFe80SzSRYqjY-134" vertex="1">
          <mxGeometry y="26" width="140" height="28" as="geometry" />
        </mxCell>
        <mxCell id="CEjb-kwAFe80SzSRYqjY-137" value="Prices" style="swimlane;fontStyle=0;childLayout=stackLayout;horizontal=1;startSize=26;fillColor=none;horizontalStack=0;resizeParent=1;resizeParentMax=0;resizeLast=0;collapsible=1;marginBottom=0;" parent="1" vertex="1">
          <mxGeometry x="722" y="736" width="140" height="136" as="geometry" />
        </mxCell>
        <mxCell id="CEjb-kwAFe80SzSRYqjY-138" value="ID: int PK" style="text;strokeColor=none;fillColor=none;align=left;verticalAlign=top;spacingLeft=4;spacingRight=4;overflow=hidden;rotatable=0;points=[[0,0.5],[1,0.5]];portConstraint=eastwest;fontStyle=1" parent="CEjb-kwAFe80SzSRYqjY-137" vertex="1">
          <mxGeometry y="26" width="140" height="26" as="geometry" />
        </mxCell>
        <mxCell id="CEjb-kwAFe80SzSRYqjY-140" value="price: float" style="text;strokeColor=none;fillColor=none;align=left;verticalAlign=top;spacingLeft=4;spacingRight=4;overflow=hidden;rotatable=0;points=[[0,0.5],[1,0.5]];portConstraint=eastwest;" parent="CEjb-kwAFe80SzSRYqjY-137" vertex="1">
          <mxGeometry y="52" width="140" height="28" as="geometry" />
        </mxCell>
        <mxCell id="CEjb-kwAFe80SzSRYqjY-139" value="discount: float" style="text;strokeColor=none;fillColor=none;align=left;verticalAlign=top;spacingLeft=4;spacingRight=4;overflow=hidden;rotatable=0;points=[[0,0.5],[1,0.5]];portConstraint=eastwest;" parent="CEjb-kwAFe80SzSRYqjY-137" vertex="1">
          <mxGeometry y="80" width="140" height="28" as="geometry" />
        </mxCell>
        <mxCell id="CEjb-kwAFe80SzSRYqjY-141" value="validFrom: DateTime" style="text;strokeColor=none;fillColor=none;align=left;verticalAlign=top;spacingLeft=4;spacingRight=4;overflow=hidden;rotatable=0;points=[[0,0.5],[1,0.5]];portConstraint=eastwest;" parent="CEjb-kwAFe80SzSRYqjY-137" vertex="1">
          <mxGeometry y="108" width="140" height="28" as="geometry" />
        </mxCell>
        <mxCell id="CEjb-kwAFe80SzSRYqjY-143" value="" style="endArrow=none;html=1;edgeStyle=orthogonalEdgeStyle;exitX=0.994;exitY=0.077;exitDx=0;exitDy=0;exitPerimeter=0;entryX=0;entryY=0.5;entryDx=0;entryDy=0;" parent="1" target="CEjb-kwAFe80SzSRYqjY-141" edge="1">
          <mxGeometry relative="1" as="geometry">
            <mxPoint x="547" y="865.156" as="sourcePoint" />
            <mxPoint x="690" y="861" as="targetPoint" />
            <Array as="points">
              <mxPoint x="547" y="861" />
              <mxPoint x="690" y="861" />
              <mxPoint x="690" y="858" />
            </Array>
          </mxGeometry>
        </mxCell>
        <mxCell id="CEjb-kwAFe80SzSRYqjY-144" value="*" style="edgeLabel;html=1;align=center;verticalAlign=middle;resizable=0;points=[];" parent="CEjb-kwAFe80SzSRYqjY-143" vertex="1" connectable="0">
          <mxGeometry x="0.9673" relative="1" as="geometry">
            <mxPoint as="offset" />
          </mxGeometry>
        </mxCell>
        <mxCell id="CEjb-kwAFe80SzSRYqjY-145" value="1" style="edgeLabel;html=1;align=center;verticalAlign=middle;resizable=0;points=[];" parent="CEjb-kwAFe80SzSRYqjY-143" vertex="1" connectable="0">
          <mxGeometry x="-0.9734" y="1" relative="1" as="geometry">
            <mxPoint as="offset" />
          </mxGeometry>
        </mxCell>
        <mxCell id="CEjb-kwAFe80SzSRYqjY-146" value="Belongs-to" style="edgeLabel;html=1;align=center;verticalAlign=middle;resizable=0;points=[];" parent="CEjb-kwAFe80SzSRYqjY-143" vertex="1" connectable="0">
          <mxGeometry x="-0.0427" relative="1" as="geometry">
            <mxPoint as="offset" />
          </mxGeometry>
        </mxCell>
        <mxCell id="CEjb-kwAFe80SzSRYqjY-147" value="Recipe" style="swimlane;fontStyle=0;childLayout=stackLayout;horizontal=1;startSize=26;fillColor=none;horizontalStack=0;resizeParent=1;resizeParentMax=0;resizeLast=0;collapsible=1;marginBottom=0;" parent="1" vertex="1">
          <mxGeometry x="550" y="1110" width="140" height="108" as="geometry" />
        </mxCell>
        <mxCell id="CEjb-kwAFe80SzSRYqjY-148" value="ID: int PK" style="text;strokeColor=none;fillColor=none;align=left;verticalAlign=top;spacingLeft=4;spacingRight=4;overflow=hidden;rotatable=0;points=[[0,0.5],[1,0.5]];portConstraint=eastwest;fontStyle=1" parent="CEjb-kwAFe80SzSRYqjY-147" vertex="1">
          <mxGeometry y="26" width="140" height="26" as="geometry" />
        </mxCell>
        <mxCell id="CEjb-kwAFe80SzSRYqjY-149" value="name: string" style="text;strokeColor=none;fillColor=none;align=left;verticalAlign=top;spacingLeft=4;spacingRight=4;overflow=hidden;rotatable=0;points=[[0,0.5],[1,0.5]];portConstraint=eastwest;" parent="CEjb-kwAFe80SzSRYqjY-147" vertex="1">
          <mxGeometry y="52" width="140" height="28" as="geometry" />
        </mxCell>
        <mxCell id="CEjb-kwAFe80SzSRYqjY-150" value="instruction: string" style="text;strokeColor=none;fillColor=none;align=left;verticalAlign=top;spacingLeft=4;spacingRight=4;overflow=hidden;rotatable=0;points=[[0,0.5],[1,0.5]];portConstraint=eastwest;" parent="CEjb-kwAFe80SzSRYqjY-147" vertex="1">
          <mxGeometry y="80" width="140" height="28" as="geometry" />
        </mxCell>
        <mxCell id="CEjb-kwAFe80SzSRYqjY-153" value="" style="endArrow=none;html=1;edgeStyle=orthogonalEdgeStyle;entryX=0.529;entryY=0.964;entryDx=0;entryDy=0;exitX=0;exitY=0.25;exitDx=0;exitDy=0;entryPerimeter=0;" parent="1" source="CEjb-kwAFe80SzSRYqjY-147" target="CEjb-kwAFe80SzSRYqjY-85" edge="1">
          <mxGeometry relative="1" as="geometry">
            <mxPoint x="586.02" y="1010.002" as="sourcePoint" />
            <mxPoint x="400" y="1091.01" as="targetPoint" />
            <Array as="points">
              <mxPoint x="430" y="1137" />
              <mxPoint x="430" y="989" />
            </Array>
          </mxGeometry>
        </mxCell>
        <mxCell id="CEjb-kwAFe80SzSRYqjY-154" value="*" style="edgeLabel;html=1;align=center;verticalAlign=middle;resizable=0;points=[];" parent="CEjb-kwAFe80SzSRYqjY-153" vertex="1" connectable="0">
          <mxGeometry x="0.9673" relative="1" as="geometry">
            <mxPoint as="offset" />
          </mxGeometry>
        </mxCell>
        <mxCell id="CEjb-kwAFe80SzSRYqjY-155" value="*" style="edgeLabel;html=1;align=center;verticalAlign=middle;resizable=0;points=[];" parent="CEjb-kwAFe80SzSRYqjY-153" vertex="1" connectable="0">
          <mxGeometry x="-0.9734" y="1" relative="1" as="geometry">
            <mxPoint as="offset" />
          </mxGeometry>
        </mxCell>
        <mxCell id="CEjb-kwAFe80SzSRYqjY-156" value="Belongs-to" style="edgeLabel;html=1;align=center;verticalAlign=middle;resizable=0;points=[];" parent="CEjb-kwAFe80SzSRYqjY-153" vertex="1" connectable="0">
          <mxGeometry x="-0.0427" relative="1" as="geometry">
            <mxPoint x="20" y="35.88" as="offset" />
          </mxGeometry>
        </mxCell>
        <mxCell id="CEjb-kwAFe80SzSRYqjY-157" value="" style="endArrow=none;html=1;edgeStyle=orthogonalEdgeStyle;" parent="1" edge="1">
          <mxGeometry relative="1" as="geometry">
            <mxPoint x="450" y="1146.01" as="sourcePoint" />
            <mxPoint x="450" y="1196.01" as="targetPoint" />
            <Array as="points">
              <mxPoint x="450" y="1136.01" />
              <mxPoint x="450" y="1206.01" />
            </Array>
          </mxGeometry>
        </mxCell>
        <mxCell id="CEjb-kwAFe80SzSRYqjY-158" value="RecipeProduct" style="swimlane;fontStyle=0;childLayout=stackLayout;horizontal=1;startSize=26;fillColor=none;horizontalStack=0;resizeParent=1;resizeParentMax=0;resizeLast=0;collapsible=1;marginBottom=0;" parent="1" vertex="1">
          <mxGeometry x="390" y="1196.01" width="140" height="54" as="geometry" />
        </mxCell>
        <mxCell id="CEjb-kwAFe80SzSRYqjY-159" value="quantity: Int" style="text;strokeColor=none;fillColor=none;align=left;verticalAlign=top;spacingLeft=4;spacingRight=4;overflow=hidden;rotatable=0;points=[[0,0.5],[1,0.5]];portConstraint=eastwest;" parent="CEjb-kwAFe80SzSRYqjY-158" vertex="1">
          <mxGeometry y="26" width="140" height="28" as="geometry" />
        </mxCell>
        <mxCell id="CEjb-kwAFe80SzSRYqjY-160" value="" style="endArrow=none;html=1;edgeStyle=orthogonalEdgeStyle;exitX=0.571;exitY=1.214;exitDx=0;exitDy=0;exitPerimeter=0;entryX=-0.014;entryY=0.885;entryDx=0;entryDy=0;entryPerimeter=0;" parent="1" source="CEjb-kwAFe80SzSRYqjY-150" target="CEjb-kwAFe80SzSRYqjY-103" edge="1">
          <mxGeometry relative="1" as="geometry">
            <mxPoint x="407.98" y="1247" as="sourcePoint" />
            <mxPoint x="10" y="1280" as="targetPoint" />
            <Array as="points">
              <mxPoint x="630" y="1280" />
              <mxPoint x="40" y="1280" />
              <mxPoint x="40" y="969" />
            </Array>
          </mxGeometry>
        </mxCell>
        <mxCell id="CEjb-kwAFe80SzSRYqjY-161" value="*" style="edgeLabel;html=1;align=center;verticalAlign=middle;resizable=0;points=[];" parent="CEjb-kwAFe80SzSRYqjY-160" vertex="1" connectable="0">
          <mxGeometry x="0.9673" relative="1" as="geometry">
            <mxPoint as="offset" />
          </mxGeometry>
        </mxCell>
        <mxCell id="CEjb-kwAFe80SzSRYqjY-162" value="*" style="edgeLabel;html=1;align=center;verticalAlign=middle;resizable=0;points=[];" parent="CEjb-kwAFe80SzSRYqjY-160" vertex="1" connectable="0">
          <mxGeometry x="-0.9734" y="1" relative="1" as="geometry">
            <mxPoint as="offset" />
          </mxGeometry>
        </mxCell>
        <mxCell id="CEjb-kwAFe80SzSRYqjY-163" value="Belongs-to" style="edgeLabel;html=1;align=center;verticalAlign=middle;resizable=0;points=[];" parent="CEjb-kwAFe80SzSRYqjY-160" vertex="1" connectable="0">
          <mxGeometry x="-0.0427" relative="1" as="geometry">
            <mxPoint x="-23" as="offset" />
          </mxGeometry>
        </mxCell>
        <mxCell id="CEjb-kwAFe80SzSRYqjY-175" value="Customer" style="swimlane;fontStyle=0;childLayout=stackLayout;horizontal=1;startSize=26;fillColor=none;horizontalStack=0;resizeParent=1;resizeParentMax=0;resizeLast=0;collapsible=1;marginBottom=0;" parent="1" vertex="1">
          <mxGeometry x="980" y="820" width="140" height="192" as="geometry" />
        </mxCell>
        <mxCell id="CEjb-kwAFe80SzSRYqjY-176" value="ID: int PK" style="text;strokeColor=none;fillColor=none;align=left;verticalAlign=top;spacingLeft=4;spacingRight=4;overflow=hidden;rotatable=0;points=[[0,0.5],[1,0.5]];portConstraint=eastwest;fontStyle=1" parent="CEjb-kwAFe80SzSRYqjY-175" vertex="1">
          <mxGeometry y="26" width="140" height="26" as="geometry" />
        </mxCell>
        <mxCell id="CEjb-kwAFe80SzSRYqjY-177" value="firstName: string " style="text;strokeColor=none;fillColor=none;align=left;verticalAlign=top;spacingLeft=4;spacingRight=4;overflow=hidden;rotatable=0;points=[[0,0.5],[1,0.5]];portConstraint=eastwest;" parent="CEjb-kwAFe80SzSRYqjY-175" vertex="1">
          <mxGeometry y="52" width="140" height="28" as="geometry" />
        </mxCell>
        <mxCell id="CEjb-kwAFe80SzSRYqjY-179" value="lastName: string " style="text;strokeColor=none;fillColor=none;align=left;verticalAlign=top;spacingLeft=4;spacingRight=4;overflow=hidden;rotatable=0;points=[[0,0.5],[1,0.5]];portConstraint=eastwest;" parent="CEjb-kwAFe80SzSRYqjY-175" vertex="1">
          <mxGeometry y="80" width="140" height="28" as="geometry" />
        </mxCell>
        <mxCell id="CEjb-kwAFe80SzSRYqjY-178" value="telephone: string " style="text;strokeColor=none;fillColor=none;align=left;verticalAlign=top;spacingLeft=4;spacingRight=4;overflow=hidden;rotatable=0;points=[[0,0.5],[1,0.5]];portConstraint=eastwest;" parent="CEjb-kwAFe80SzSRYqjY-175" vertex="1">
          <mxGeometry y="108" width="140" height="28" as="geometry" />
        </mxCell>
        <mxCell id="CEjb-kwAFe80SzSRYqjY-180" value="email: string " style="text;strokeColor=none;fillColor=none;align=left;verticalAlign=top;spacingLeft=4;spacingRight=4;overflow=hidden;rotatable=0;points=[[0,0.5],[1,0.5]];portConstraint=eastwest;" parent="CEjb-kwAFe80SzSRYqjY-175" vertex="1">
          <mxGeometry y="136" width="140" height="28" as="geometry" />
        </mxCell>
        <mxCell id="CEjb-kwAFe80SzSRYqjY-181" value="address: string " style="text;strokeColor=none;fillColor=none;align=left;verticalAlign=top;spacingLeft=4;spacingRight=4;overflow=hidden;rotatable=0;points=[[0,0.5],[1,0.5]];portConstraint=eastwest;" parent="CEjb-kwAFe80SzSRYqjY-175" vertex="1">
          <mxGeometry y="164" width="140" height="28" as="geometry" />
        </mxCell>
        <mxCell id="CEjb-kwAFe80SzSRYqjY-183" value="" style="endArrow=none;html=1;edgeStyle=orthogonalEdgeStyle;exitX=1;exitY=0.5;exitDx=0;exitDy=0;" parent="1" source="CEjb-kwAFe80SzSRYqjY-42" edge="1">
          <mxGeometry relative="1" as="geometry">
            <mxPoint x="1120.0000000000002" y="712.248" as="sourcePoint" />
            <mxPoint x="1120.44" y="860" as="targetPoint" />
            <Array as="points">
              <mxPoint x="1031" y="712" />
              <mxPoint x="1189" y="712" />
              <mxPoint x="1189" y="860" />
            </Array>
          </mxGeometry>
        </mxCell>
        <mxCell id="CEjb-kwAFe80SzSRYqjY-184" value="*" style="edgeLabel;html=1;align=center;verticalAlign=middle;resizable=0;points=[];" parent="CEjb-kwAFe80SzSRYqjY-183" vertex="1" connectable="0">
          <mxGeometry x="0.9673" relative="1" as="geometry">
            <mxPoint as="offset" />
          </mxGeometry>
        </mxCell>
        <mxCell id="CEjb-kwAFe80SzSRYqjY-185" value="1" style="edgeLabel;html=1;align=center;verticalAlign=middle;resizable=0;points=[];" parent="CEjb-kwAFe80SzSRYqjY-183" vertex="1" connectable="0">
          <mxGeometry x="-0.9734" y="1" relative="1" as="geometry">
            <mxPoint as="offset" />
          </mxGeometry>
        </mxCell>
        <mxCell id="CEjb-kwAFe80SzSRYqjY-186" value="Belongs-to" style="edgeLabel;html=1;align=center;verticalAlign=middle;resizable=0;points=[];" parent="CEjb-kwAFe80SzSRYqjY-183" vertex="1" connectable="0">
          <mxGeometry x="-0.0427" relative="1" as="geometry">
            <mxPoint as="offset" />
          </mxGeometry>
        </mxCell>
        <mxCell id="CEjb-kwAFe80SzSRYqjY-187" value="" style="endArrow=none;html=1;edgeStyle=orthogonalEdgeStyle;exitX=0.994;exitY=0.077;exitDx=0;exitDy=0;exitPerimeter=0;entryX=1;entryY=0.5;entryDx=0;entryDy=0;" parent="1" target="CEjb-kwAFe80SzSRYqjY-84" edge="1">
          <mxGeometry relative="1" as="geometry">
            <mxPoint x="547" y="954.156" as="sourcePoint" />
            <mxPoint x="689.9999999999998" y="950" as="targetPoint" />
            <Array as="points">
              <mxPoint x="547" y="950" />
              <mxPoint x="660" y="950" />
              <mxPoint x="660" y="920" />
            </Array>
          </mxGeometry>
        </mxCell>
        <mxCell id="CEjb-kwAFe80SzSRYqjY-188" value="*" style="edgeLabel;html=1;align=center;verticalAlign=middle;resizable=0;points=[];" parent="CEjb-kwAFe80SzSRYqjY-187" vertex="1" connectable="0">
          <mxGeometry x="0.9673" relative="1" as="geometry">
            <mxPoint as="offset" />
          </mxGeometry>
        </mxCell>
        <mxCell id="CEjb-kwAFe80SzSRYqjY-189" value="0..1" style="edgeLabel;html=1;align=center;verticalAlign=middle;resizable=0;points=[];" parent="CEjb-kwAFe80SzSRYqjY-187" vertex="1" connectable="0">
          <mxGeometry x="-0.9734" y="1" relative="1" as="geometry">
            <mxPoint x="12.87" as="offset" />
          </mxGeometry>
        </mxCell>
        <mxCell id="CEjb-kwAFe80SzSRYqjY-190" value="Original" style="edgeLabel;html=1;align=center;verticalAlign=middle;resizable=0;points=[];" parent="CEjb-kwAFe80SzSRYqjY-187" vertex="1" connectable="0">
          <mxGeometry x="-0.0427" relative="1" as="geometry">
            <mxPoint x="-60" y="5.84" as="offset" />
          </mxGeometry>
        </mxCell>
        <mxCell id="CEjb-kwAFe80SzSRYqjY-191" value="Substitution" style="edgeLabel;html=1;align=center;verticalAlign=middle;resizable=0;points=[];" parent="1" vertex="1" connectable="0">
          <mxGeometry x="630.0000000000002" y="969.9964162697704" as="geometry">
            <mxPoint x="-20" y="-51" as="offset" />
          </mxGeometry>
        </mxCell>
        <mxCell id="CEjb-kwAFe80SzSRYqjY-193" value="Order" style="swimlane;fontStyle=0;childLayout=stackLayout;horizontal=1;startSize=26;fillColor=none;horizontalStack=0;resizeParent=1;resizeParentMax=0;resizeLast=0;collapsible=1;marginBottom=0;" parent="1" vertex="1">
          <mxGeometry x="750" y="930" width="170" height="136" as="geometry" />
        </mxCell>
        <mxCell id="CEjb-kwAFe80SzSRYqjY-194" value="ID: int PK" style="text;strokeColor=none;fillColor=none;align=left;verticalAlign=top;spacingLeft=4;spacingRight=4;overflow=hidden;rotatable=0;points=[[0,0.5],[1,0.5]];portConstraint=eastwest;fontStyle=1" parent="CEjb-kwAFe80SzSRYqjY-193" vertex="1">
          <mxGeometry y="26" width="170" height="26" as="geometry" />
        </mxCell>
        <mxCell id="CEjb-kwAFe80SzSRYqjY-195" value="substitutionAllowed: bool " style="text;strokeColor=none;fillColor=none;align=left;verticalAlign=top;spacingLeft=4;spacingRight=4;overflow=hidden;rotatable=0;points=[[0,0.5],[1,0.5]];portConstraint=eastwest;" parent="CEjb-kwAFe80SzSRYqjY-193" vertex="1">
          <mxGeometry y="52" width="170" height="28" as="geometry" />
        </mxCell>
        <mxCell id="7xJU4-vhl22zAsM5gSTX-1" value="deliveredTime: Time " style="text;strokeColor=none;fillColor=none;align=left;verticalAlign=top;spacingLeft=4;spacingRight=4;overflow=hidden;rotatable=0;points=[[0,0.5],[1,0.5]];portConstraint=eastwest;" vertex="1" parent="CEjb-kwAFe80SzSRYqjY-193">
          <mxGeometry y="80" width="170" height="28" as="geometry" />
        </mxCell>
        <mxCell id="CEjb-kwAFe80SzSRYqjY-204" value="timing?: type? " style="text;strokeColor=none;fillColor=none;align=left;verticalAlign=top;spacingLeft=4;spacingRight=4;overflow=hidden;rotatable=0;points=[[0,0.5],[1,0.5]];portConstraint=eastwest;" parent="CEjb-kwAFe80SzSRYqjY-193" vertex="1">
          <mxGeometry y="108" width="170" height="28" as="geometry" />
        </mxCell>
        <mxCell id="CEjb-kwAFe80SzSRYqjY-200" value="" style="endArrow=none;html=1;edgeStyle=orthogonalEdgeStyle;exitX=0.012;exitY=0.744;exitDx=0;exitDy=0;exitPerimeter=0;entryX=1;entryY=0.5;entryDx=0;entryDy=0;" parent="1" source="CEjb-kwAFe80SzSRYqjY-179" target="CEjb-kwAFe80SzSRYqjY-195" edge="1">
          <mxGeometry relative="1" as="geometry">
            <mxPoint x="920.0000000000002" y="930.078" as="sourcePoint" />
            <mxPoint x="920.44" y="1077.83" as="targetPoint" />
            <Array as="points">
              <mxPoint x="950" y="921" />
              <mxPoint x="950" y="996" />
            </Array>
          </mxGeometry>
        </mxCell>
        <mxCell id="CEjb-kwAFe80SzSRYqjY-201" value="*" style="edgeLabel;html=1;align=center;verticalAlign=middle;resizable=0;points=[];" parent="CEjb-kwAFe80SzSRYqjY-200" vertex="1" connectable="0">
          <mxGeometry x="0.9673" relative="1" as="geometry">
            <mxPoint as="offset" />
          </mxGeometry>
        </mxCell>
        <mxCell id="CEjb-kwAFe80SzSRYqjY-202" value="1" style="edgeLabel;html=1;align=center;verticalAlign=middle;resizable=0;points=[];" parent="CEjb-kwAFe80SzSRYqjY-200" vertex="1" connectable="0">
          <mxGeometry x="-0.9734" y="1" relative="1" as="geometry">
            <mxPoint as="offset" />
          </mxGeometry>
        </mxCell>
        <mxCell id="CEjb-kwAFe80SzSRYqjY-203" value="Belongs-to" style="edgeLabel;html=1;align=center;verticalAlign=middle;resizable=0;points=[];" parent="CEjb-kwAFe80SzSRYqjY-200" vertex="1" connectable="0">
          <mxGeometry x="-0.0427" relative="1" as="geometry">
            <mxPoint as="offset" />
          </mxGeometry>
        </mxCell>
        <mxCell id="CEjb-kwAFe80SzSRYqjY-205" value="" style="endArrow=none;html=1;edgeStyle=orthogonalEdgeStyle;entryX=-0.016;entryY=0.117;entryDx=0;entryDy=0;entryPerimeter=0;exitX=0.643;exitY=1.357;exitDx=0;exitDy=0;exitPerimeter=0;" parent="1" source="CEjb-kwAFe80SzSRYqjY-69" target="CEjb-kwAFe80SzSRYqjY-195" edge="1">
          <mxGeometry relative="1" as="geometry">
            <mxPoint x="460" y="720" as="sourcePoint" />
            <mxPoint x="660.44" y="1012" as="targetPoint" />
            <Array as="points">
              <mxPoint x="460" y="720" />
              <mxPoint x="670" y="720" />
              <mxPoint x="670" y="985" />
            </Array>
          </mxGeometry>
        </mxCell>
        <mxCell id="CEjb-kwAFe80SzSRYqjY-206" value="*" style="edgeLabel;html=1;align=center;verticalAlign=middle;resizable=0;points=[];" parent="CEjb-kwAFe80SzSRYqjY-205" vertex="1" connectable="0">
          <mxGeometry x="0.9673" relative="1" as="geometry">
            <mxPoint as="offset" />
          </mxGeometry>
        </mxCell>
        <mxCell id="CEjb-kwAFe80SzSRYqjY-207" value="1" style="edgeLabel;html=1;align=center;verticalAlign=middle;resizable=0;points=[];" parent="CEjb-kwAFe80SzSRYqjY-205" vertex="1" connectable="0">
          <mxGeometry x="-0.9734" y="1" relative="1" as="geometry">
            <mxPoint as="offset" />
          </mxGeometry>
        </mxCell>
        <mxCell id="CEjb-kwAFe80SzSRYqjY-208" value="Belongs-to" style="edgeLabel;html=1;align=center;verticalAlign=middle;resizable=0;points=[];" parent="CEjb-kwAFe80SzSRYqjY-205" vertex="1" connectable="0">
          <mxGeometry x="-0.0427" relative="1" as="geometry">
            <mxPoint as="offset" />
          </mxGeometry>
        </mxCell>
        <mxCell id="CEjb-kwAFe80SzSRYqjY-209" value="OrderPackage" style="swimlane;fontStyle=0;childLayout=stackLayout;horizontal=1;startSize=26;fillColor=none;horizontalStack=0;resizeParent=1;resizeParentMax=0;resizeLast=0;collapsible=1;marginBottom=0;" parent="1" vertex="1">
          <mxGeometry x="920" y="1102" width="150" height="136" as="geometry" />
        </mxCell>
        <mxCell id="CEjb-kwAFe80SzSRYqjY-210" value="ID: int PK" style="text;strokeColor=none;fillColor=none;align=left;verticalAlign=top;spacingLeft=4;spacingRight=4;overflow=hidden;rotatable=0;points=[[0,0.5],[1,0.5]];portConstraint=eastwest;fontStyle=1" parent="CEjb-kwAFe80SzSRYqjY-209" vertex="1">
          <mxGeometry y="26" width="150" height="26" as="geometry" />
        </mxCell>
        <mxCell id="CEjb-kwAFe80SzSRYqjY-211" value="description: string" style="text;strokeColor=none;fillColor=none;align=left;verticalAlign=top;spacingLeft=4;spacingRight=4;overflow=hidden;rotatable=0;points=[[0,0.5],[1,0.5]];portConstraint=eastwest;" parent="CEjb-kwAFe80SzSRYqjY-209" vertex="1">
          <mxGeometry y="52" width="150" height="28" as="geometry" />
        </mxCell>
        <mxCell id="CEjb-kwAFe80SzSRYqjY-212" value="collected: bool" style="text;strokeColor=none;fillColor=none;align=left;verticalAlign=top;spacingLeft=4;spacingRight=4;overflow=hidden;rotatable=0;points=[[0,0.5],[1,0.5]];portConstraint=eastwest;" parent="CEjb-kwAFe80SzSRYqjY-209" vertex="1">
          <mxGeometry y="80" width="150" height="28" as="geometry" />
        </mxCell>
        <mxCell id="CEjb-kwAFe80SzSRYqjY-221" value="size?: type?" style="text;strokeColor=none;fillColor=none;align=left;verticalAlign=top;spacingLeft=4;spacingRight=4;overflow=hidden;rotatable=0;points=[[0,0.5],[1,0.5]];portConstraint=eastwest;" parent="CEjb-kwAFe80SzSRYqjY-209" vertex="1">
          <mxGeometry y="108" width="150" height="28" as="geometry" />
        </mxCell>
        <mxCell id="CEjb-kwAFe80SzSRYqjY-213" value="" style="endArrow=none;html=1;edgeStyle=orthogonalEdgeStyle;exitX=0.412;exitY=1.107;exitDx=0;exitDy=0;exitPerimeter=0;entryX=0;entryY=0.5;entryDx=0;entryDy=0;" parent="1" source="CEjb-kwAFe80SzSRYqjY-204" target="CEjb-kwAFe80SzSRYqjY-211" edge="1">
          <mxGeometry relative="1" as="geometry">
            <mxPoint x="792.56" y="1095.188" as="sourcePoint" />
            <mxPoint x="793" y="1242.94" as="targetPoint" />
            <Array as="points">
              <mxPoint x="832" y="1080" />
              <mxPoint x="845" y="1080" />
              <mxPoint x="845" y="1095" />
              <mxPoint x="862" y="1095" />
              <mxPoint x="862" y="1160" />
              <mxPoint x="920" y="1160" />
            </Array>
          </mxGeometry>
        </mxCell>
        <mxCell id="CEjb-kwAFe80SzSRYqjY-214" value="*" style="edgeLabel;html=1;align=center;verticalAlign=middle;resizable=0;points=[];" parent="CEjb-kwAFe80SzSRYqjY-213" vertex="1" connectable="0">
          <mxGeometry x="0.9673" relative="1" as="geometry">
            <mxPoint as="offset" />
          </mxGeometry>
        </mxCell>
        <mxCell id="CEjb-kwAFe80SzSRYqjY-215" value="1" style="edgeLabel;html=1;align=center;verticalAlign=middle;resizable=0;points=[];" parent="CEjb-kwAFe80SzSRYqjY-213" vertex="1" connectable="0">
          <mxGeometry x="-0.9734" y="1" relative="1" as="geometry">
            <mxPoint as="offset" />
          </mxGeometry>
        </mxCell>
        <mxCell id="CEjb-kwAFe80SzSRYqjY-216" value="Belongs-to" style="edgeLabel;html=1;align=center;verticalAlign=middle;resizable=0;points=[];" parent="CEjb-kwAFe80SzSRYqjY-213" vertex="1" connectable="0">
          <mxGeometry x="-0.0427" relative="1" as="geometry">
            <mxPoint as="offset" />
          </mxGeometry>
        </mxCell>
        <mxCell id="CEjb-kwAFe80SzSRYqjY-217" value="" style="endArrow=none;html=1;edgeStyle=orthogonalEdgeStyle;exitX=-0.026;exitY=-0.138;exitDx=0;exitDy=0;exitPerimeter=0;entryX=-0.007;entryY=0.015;entryDx=0;entryDy=0;entryPerimeter=0;" parent="1" source="CEjb-kwAFe80SzSRYqjY-212" target="CEjb-kwAFe80SzSRYqjY-97" edge="1">
          <mxGeometry relative="1" as="geometry">
            <mxPoint x="689.94" y="1179.9920000000002" as="sourcePoint" />
            <mxPoint x="88.03999999999996" y="979.0100000000002" as="targetPoint" />
            <Array as="points">
              <mxPoint x="916" y="1180" />
              <mxPoint x="900" y="1180" />
              <mxPoint x="900" y="1320" />
              <mxPoint x="20" y="1320" />
              <mxPoint x="20" y="780" />
              <mxPoint x="79" y="780" />
            </Array>
          </mxGeometry>
        </mxCell>
        <mxCell id="CEjb-kwAFe80SzSRYqjY-218" value="1" style="edgeLabel;html=1;align=center;verticalAlign=middle;resizable=0;points=[];" parent="CEjb-kwAFe80SzSRYqjY-217" vertex="1" connectable="0">
          <mxGeometry x="0.9673" relative="1" as="geometry">
            <mxPoint as="offset" />
          </mxGeometry>
        </mxCell>
        <mxCell id="CEjb-kwAFe80SzSRYqjY-219" value="*" style="edgeLabel;html=1;align=center;verticalAlign=middle;resizable=0;points=[];" parent="CEjb-kwAFe80SzSRYqjY-217" vertex="1" connectable="0">
          <mxGeometry x="-0.9734" y="1" relative="1" as="geometry">
            <mxPoint as="offset" />
          </mxGeometry>
        </mxCell>
        <mxCell id="CEjb-kwAFe80SzSRYqjY-220" value="Belongs-to" style="edgeLabel;html=1;align=center;verticalAlign=middle;resizable=0;points=[];" parent="CEjb-kwAFe80SzSRYqjY-217" vertex="1" connectable="0">
          <mxGeometry x="-0.0427" relative="1" as="geometry">
            <mxPoint x="-23" as="offset" />
          </mxGeometry>
        </mxCell>
        <mxCell id="CEjb-kwAFe80SzSRYqjY-222" value="PackageProducts" style="swimlane;fontStyle=0;childLayout=stackLayout;horizontal=1;startSize=26;fillColor=none;horizontalStack=0;resizeParent=1;resizeParentMax=0;resizeLast=0;collapsible=1;marginBottom=0;" parent="1" vertex="1">
          <mxGeometry x="700" y="1170" width="150" height="82" as="geometry" />
        </mxCell>
        <mxCell id="CEjb-kwAFe80SzSRYqjY-225" value="wantQuantity: int" style="text;strokeColor=none;fillColor=none;align=left;verticalAlign=top;spacingLeft=4;spacingRight=4;overflow=hidden;rotatable=0;points=[[0,0.5],[1,0.5]];portConstraint=eastwest;" parent="CEjb-kwAFe80SzSRYqjY-222" vertex="1">
          <mxGeometry y="26" width="150" height="28" as="geometry" />
        </mxCell>
        <mxCell id="CEjb-kwAFe80SzSRYqjY-227" value="gotQuantity: int" style="text;strokeColor=none;fillColor=none;align=left;verticalAlign=top;spacingLeft=4;spacingRight=4;overflow=hidden;rotatable=0;points=[[0,0.5],[1,0.5]];portConstraint=eastwest;" parent="CEjb-kwAFe80SzSRYqjY-222" vertex="1">
          <mxGeometry y="54" width="150" height="28" as="geometry" />
        </mxCell>
        <mxCell id="CEjb-kwAFe80SzSRYqjY-228" value="" style="endArrow=none;html=1;edgeStyle=orthogonalEdgeStyle;entryX=0.812;entryY=1.143;entryDx=0;entryDy=0;exitX=0;exitY=0.5;exitDx=0;exitDy=0;entryPerimeter=0;" parent="1" source="CEjb-kwAFe80SzSRYqjY-210" target="CEjb-kwAFe80SzSRYqjY-85" edge="1">
          <mxGeometry relative="1" as="geometry">
            <mxPoint x="829.9999999999998" y="1160.01" as="sourcePoint" />
            <mxPoint x="761.06" y="1012.002" as="targetPoint" />
            <Array as="points">
              <mxPoint x="920" y="1130" />
              <mxPoint x="710" y="1130" />
              <mxPoint x="710" y="1012" />
              <mxPoint x="521" y="1012" />
            </Array>
          </mxGeometry>
        </mxCell>
        <mxCell id="CEjb-kwAFe80SzSRYqjY-229" value="*" style="edgeLabel;html=1;align=center;verticalAlign=middle;resizable=0;points=[];" parent="CEjb-kwAFe80SzSRYqjY-228" vertex="1" connectable="0">
          <mxGeometry x="0.9673" relative="1" as="geometry">
            <mxPoint as="offset" />
          </mxGeometry>
        </mxCell>
        <mxCell id="CEjb-kwAFe80SzSRYqjY-230" value="*" style="edgeLabel;html=1;align=center;verticalAlign=middle;resizable=0;points=[];" parent="CEjb-kwAFe80SzSRYqjY-228" vertex="1" connectable="0">
          <mxGeometry x="-0.9734" y="1" relative="1" as="geometry">
            <mxPoint as="offset" />
          </mxGeometry>
        </mxCell>
        <mxCell id="CEjb-kwAFe80SzSRYqjY-231" value="Belongs-to" style="edgeLabel;html=1;align=center;verticalAlign=middle;resizable=0;points=[];" parent="CEjb-kwAFe80SzSRYqjY-228" vertex="1" connectable="0">
          <mxGeometry x="-0.0427" relative="1" as="geometry">
            <mxPoint x="30" y="40.18" as="offset" />
          </mxGeometry>
        </mxCell>
        <mxCell id="CEjb-kwAFe80SzSRYqjY-232" value="" style="endArrow=none;html=1;edgeStyle=orthogonalEdgeStyle;entryX=0.25;entryY=0;entryDx=0;entryDy=0;" parent="1" target="CEjb-kwAFe80SzSRYqjY-222" edge="1">
          <mxGeometry relative="1" as="geometry">
            <mxPoint x="739.9999999999998" y="1139.9600000000003" as="sourcePoint" />
            <mxPoint x="739.9999999999998" y="1189.9600000000003" as="targetPoint" />
            <Array as="points">
              <mxPoint x="740" y="1170" />
            </Array>
          </mxGeometry>
        </mxCell>
        <mxCell id="CEjb-kwAFe80SzSRYqjY-233" value="" style="endArrow=none;html=1;edgeStyle=orthogonalEdgeStyle;exitX=0.13;exitY=-0.037;exitDx=0;exitDy=0;exitPerimeter=0;entryX=0.585;entryY=1.017;entryDx=0;entryDy=0;entryPerimeter=0;" parent="1" source="CEjb-kwAFe80SzSRYqjY-222" target="CEjb-kwAFe80SzSRYqjY-85" edge="1">
          <mxGeometry relative="1" as="geometry">
            <mxPoint x="809.9999999999998" y="1158.01" as="sourcePoint" />
            <mxPoint x="480" y="1040" as="targetPoint" />
            <Array as="points">
              <mxPoint x="720" y="1158" />
              <mxPoint x="700" y="1158" />
              <mxPoint x="700" y="1040" />
              <mxPoint x="489" y="1040" />
            </Array>
          </mxGeometry>
        </mxCell>
        <mxCell id="CEjb-kwAFe80SzSRYqjY-234" value="*" style="edgeLabel;html=1;align=center;verticalAlign=middle;resizable=0;points=[];" parent="CEjb-kwAFe80SzSRYqjY-233" vertex="1" connectable="0">
          <mxGeometry x="0.9673" relative="1" as="geometry">
            <mxPoint as="offset" />
          </mxGeometry>
        </mxCell>
        <mxCell id="CEjb-kwAFe80SzSRYqjY-235" value="*" style="edgeLabel;html=1;align=center;verticalAlign=middle;resizable=0;points=[];" parent="CEjb-kwAFe80SzSRYqjY-233" vertex="1" connectable="0">
          <mxGeometry x="-0.9734" y="1" relative="1" as="geometry">
            <mxPoint as="offset" />
          </mxGeometry>
        </mxCell>
        <mxCell id="CEjb-kwAFe80SzSRYqjY-237" value="Belongs to" style="edgeLabel;html=1;align=center;verticalAlign=middle;resizable=0;points=[];" parent="CEjb-kwAFe80SzSRYqjY-233" vertex="1" connectable="0">
          <mxGeometry x="0.4157" relative="1" as="geometry">
            <mxPoint as="offset" />
          </mxGeometry>
        </mxCell>
      </root>
    </mxGraphModel>
  </diagram>
</mxfile>
